<!DOCTYPE svg PUBLIC "-//W3C//DTD SVG 1.1//EN" "http://www.w3.org/Graphics/SVG/1.1/DTD/svg11.dtd">
<!-- Uploaded to: SVG Repo, www.svgrepo.com, Transformed by: SVG Repo Mixer Tools -->
<svg height="800px" width="800px" version="1.1" id="_x32_" xmlns="http://www.w3.org/2000/svg" xmlns:xlink="http://www.w3.org/1999/xlink" viewBox="0 0 512 512" xml:space="preserve" fill="#000000">
<g id="SVGRepo_bgCarrier" stroke-width="0"/>
<g id="SVGRepo_tracerCarrier" stroke-linecap="round" stroke-linejoin="round"/>
<g id="SVGRepo_iconCarrier"> <style type="text/css"> .st0{fill:#0f4796;} </style> <g> <path class="st0" d="M420.399,414.96c-11.104-16.62-27.968-25.822-43.811-31.794c-7.95-2.986-15.721-5.194-22.563-7.068 c-6.834-1.857-12.777-3.421-16.768-4.927c-6.98-2.593-14.362-5.956-19.51-9.568c-2.568-1.799-4.55-3.64-5.7-5.22 c-1.159-1.606-1.477-2.718-1.489-3.689c0-6.717,0-15.114,0-26.165c8.933-9.945,21.769-25.345,27.043-49.77 c1.844-0.828,3.668-1.774,5.424-2.994c4.366-3.012,8.076-7.395,11.218-13.35c3.166-5.981,5.96-13.626,8.95-24.082 c1.514-5.304,2.212-9.913,2.212-14.011c0.012-4.726-0.966-8.833-2.752-12.162c-0.941-1.782-2.133-3.187-3.379-4.45 c0.296-0.435,0.602-0.87,0.849-1.272c5.186-8.239,0-47.018,0-47.018l-0.398-0.151V89.194l62.23-20.736L256.002,0L90.049,68.458 l11.2,3.731v77.834c-6.127,1.664-10.665,7.202-10.665,13.86c0,1.23,0.2,2.41,0.493,3.547c-2.175,3.12-3.475,6.884-3.475,10.975 v20.736c0,10.59,8.59,8.816,19.188,8.816c10.598,0,19.193,1.773,19.193-8.816v-20.736c0-4.091-1.3-7.855-3.475-10.975 c0.292-1.137,0.494-2.317,0.494-3.547c0-6.658-4.542-12.196-10.665-13.86V75.877l39.946,13.317v64.55l-0.41,0.16 c0,0-5.182,38.779,0,47.002c0.644,1.029,1.472,2.2,2.417,3.472c-1.844,1.489-3.621,3.304-4.94,5.78 c-1.786,3.33-2.764,7.437-2.76,12.162c0.009,4.098,0.707,8.708,2.221,14.011c3.998,13.927,7.607,22.919,12.279,29.519 c2.343,3.28,4.998,5.906,7.892,7.914c1.752,1.221,3.576,2.166,5.42,2.994c5.275,24.425,18.11,39.825,27.044,49.77 c0,11.051,0,19.448,0,26.165c0,0.82-0.33,2.016-1.61,3.714c-1.878,2.535-5.776,5.596-10.398,8.19 c-4.613,2.626-9.92,4.901-14.563,6.533c-5.449,1.931-14.232,3.939-24.073,6.766c-14.785,4.274-32.263,10.431-46.484,22.627 c-7.097,6.098-13.329,13.752-17.716,23.271c-4.387,9.51-6.901,20.812-6.897,34.036c0,3.07,0.134,6.248,0.405,9.527 c0.21,2.301,1.084,4.166,2.112,5.705c1.954,2.878,4.551,5.011,7.8,7.21c5.696,3.764,13.584,7.454,23.685,11.067 c30.226,10.782,80.281,20.653,142.293,20.661c50.385,0,92.916-6.541,123.272-14.755c15.186-4.116,27.311-8.624,36.073-13.124 c4.392-2.267,7.938-4.509,10.753-6.968c1.41-1.238,2.643-2.543,3.685-4.091c1.024-1.538,1.899-3.404,2.1-5.705 c0.276-3.279,0.41-6.44,0.41-9.502C432.315,440.23,427.79,426.019,420.399,414.96z M239.164,408.478l-41.013-33.208 c1.162-0.703,2.342-1.389,3.447-2.15c3.459-2.426,6.625-5.136,9.142-8.432c1.523-1.99,2.765-4.333,3.547-6.884l40.264,21.447 L239.164,408.478z M215.131,351.196c0-7.018,0-15.642,0-27.286v-2.627l-1.756-1.957c-9.336-10.398-21.975-24.191-26.358-48.725 l-0.69-3.923l-3.743-1.338c-2.384-0.853-4.203-1.715-5.789-2.819c-2.338-1.656-4.458-3.906-6.938-8.524 c-2.451-4.601-5.044-11.46-7.884-21.422c-1.246-4.35-1.69-7.737-1.69-10.255c0.008-2.919,0.564-4.626,1.137-5.696 c0.431-0.795,0.917-1.355,1.46-1.782c5.517,6.349,10.774,11.936,10.774,11.936l7.474-76.27 c27.867-2.593,63.188,2.292,74.873,15.442c11.64-13.099,46.709-18.001,74.522-15.484l7.821,79.826c0,0,6.227-6.617,12.246-13.643 c0.569,1.088,1.117,2.777,1.129,5.672c0,2.518-0.452,5.906-1.689,10.255c-3.773,13.291-7.161,21.03-10.264,25.312 c-1.556,2.175-2.978,3.53-4.559,4.634c-1.586,1.104-3.405,1.966-5.784,2.819l-3.752,1.338l-0.686,3.923 c-4.383,24.534-17.022,38.327-26.357,48.725l-1.757,1.957v2.627c0,11.643,0,20.268,0,27.286l-40.87,21.782L215.131,351.196z M272.84,408.478l-15.387-29.226l40.235-21.439c0.732,2.468,1.89,4.734,3.334,6.683c3.325,4.467,7.846,7.847,12.794,10.799 L272.84,408.478z"/> </g> </g>
</svg>